HIERARCHY
ROOT newVegas:Hips
{
	OFFSET 0.000000 96.479958 0.000000
	CHANNELS 6 Xposition Yposition Zposition Xrotation Yrotation Zrotation
	JOINT newVegas:Pelvis
	{
		OFFSET 0.000000 0.000000 0.000000
		CHANNELS 3 Xrotation Yrotation Zrotation
		JOINT newVegas:LeftUpLeg
		{
			OFFSET 18.735201 -5.666702 -4.541200
			CHANNELS 3 Xrotation Yrotation Zrotation
			JOINT newVegas:LeftLeg
			{
				OFFSET -0.021200 -31.938179 0.493100
				CHANNELS 3 Xrotation Yrotation Zrotation
				JOINT newVegas:LeftFoot
				{
					OFFSET 0.021200 -31.938179 -4.336299
					CHANNELS 3 Xrotation Yrotation Zrotation
					JOINT newVegas:LeftToeBase
					{
						OFFSET 0.943001 -26.722000 15.023500
						CHANNELS 3 Xrotation Yrotation Zrotation
						End Site
						{
							OFFSET 0.000000 30.670183 0.000000
						}
					}
				}
				JOINT newVegas:Left_PantLeg
				{
					OFFSET 0.663870 -9.044666 -1.108900
					CHANNELS 3 Xrotation Yrotation Zrotation
					End Site
					{
						OFFSET 1.415995 20.635357 0.000000
					}
				}
			}
		}
		JOINT newVegas:RightUpLeg
		{
			OFFSET -18.735201 -5.666702 -4.541200
			CHANNELS 3 Xrotation Yrotation Zrotation
			JOINT newVegas:RightLeg
			{
				OFFSET 0.018946 -31.938133 0.493100
				CHANNELS 3 Xrotation Yrotation Zrotation
				JOINT newVegas:RightFoot
				{
					OFFSET -0.018946 -31.938126 -4.336299
					CHANNELS 3 Xrotation Yrotation Zrotation
					JOINT newVegas:RightToeBase
					{
						OFFSET -0.943001 -26.722004 15.023500
						CHANNELS 3 Xrotation Yrotation Zrotation
						End Site
						{
							OFFSET 0.000000 30.670187 0.000000
						}
					}
				}
				JOINT newVegas:Right_PantLeg
				{
					OFFSET -0.661674 -9.044716 -1.108900
					CHANNELS 3 Xrotation Yrotation Zrotation
					End Site
					{
						OFFSET -1.415958 20.635269 0.000000
					}
				}
			}
		}
	}
	JOINT newVegas:Spine
	{
		OFFSET 0.000000 10.199997 -0.299500
		CHANNELS 3 Xrotation Yrotation Zrotation
		JOINT newVegas:Spine1
		{
			OFFSET 0.000000 11.900002 -1.516600
			CHANNELS 3 Xrotation Yrotation Zrotation
			JOINT newVegas:Spine2
			{
				OFFSET 0.000000 13.600006 -2.842500
				CHANNELS 3 Xrotation Yrotation Zrotation
				JOINT newVegas:Neck
				{
					OFFSET 0.000000 9.624100 -2.890100
					CHANNELS 3 Xrotation Yrotation Zrotation
					JOINT newVegas:Head
					{
						OFFSET 0.000000 14.068802 -1.351900
						CHANNELS 3 Xrotation Yrotation Zrotation
						JOINT newVegas:Hair_Back
						{
							OFFSET 0.000000 3.231903 -17.524799
							CHANNELS 3 Xrotation Yrotation Zrotation
							End Site
							{
								OFFSET 0.000000 19.849884 0.000000
							}
						}
						JOINT newVegas:Hair_Front
						{
							OFFSET 0.000000 31.260406 4.573800
							CHANNELS 3 Xrotation Yrotation Zrotation
							JOINT newVegas:Hair_Front1
							{
								OFFSET 0.000000 2.284103 11.993300
								CHANNELS 3 Xrotation Yrotation Zrotation
								JOINT newVegas:Hair_Front2
								{
									OFFSET 0.000000 2.284103 11.993300
									CHANNELS 3 Xrotation Yrotation Zrotation
									End Site
									{
										OFFSET 0.000000 12.208862 0.000000
									}
								}
							}
						}
						JOINT newVegas:Jowel
						{
							OFFSET 0.000000 -7.458206 6.864100
							CHANNELS 3 Xrotation Yrotation Zrotation
							End Site
							{
								OFFSET 0.000000 19.849884 0.000000
							}
						}
					}
				}
				JOINT newVegas:LeftShoulder
				{
					OFFSET 15.263000 10.923401 -0.547700
					CHANNELS 3 Xrotation Yrotation Zrotation
					JOINT newVegas:LeftArm
					{
						OFFSET 25.438599 -2.830597 -13.032500
						CHANNELS 3 Xrotation Yrotation Zrotation
						JOINT newVegas:LeftForeArm
						{
							OFFSET 29.960503 0.000000 0.000000
							CHANNELS 3 Xrotation Yrotation Zrotation
							JOINT newVegas:LeftHand
							{
								OFFSET 27.849251 0.000000 0.000000
								CHANNELS 3 Xrotation Yrotation Zrotation
								JOINT newVegas:LeftHandThumb1
								{
									OFFSET 4.487587 -3.305161 6.305391
									CHANNELS 3 Xrotation Yrotation Zrotation
									JOINT newVegas:LeftHandThumb2
									{
										OFFSET 5.480453 -3.164139 3.164143
										CHANNELS 3 Xrotation Yrotation Zrotation
										JOINT newVegas:LeftHandThumb3
										{
											OFFSET 5.159721 -2.978973 2.978967
											CHANNELS 3 Xrotation Yrotation Zrotation
											End Site
											{
												OFFSET 2.494507 5.926697 1.738678
											}
										}
									}
								}
								JOINT newVegas:LeftHandIndex1
								{
									OFFSET 18.578728 -0.527832 5.208049
									CHANNELS 3 Xrotation Yrotation Zrotation
									JOINT newVegas:LeftHandIndex2
									{
										OFFSET 3.192009 0.000000 0.000000
										CHANNELS 3 Xrotation Yrotation Zrotation
										JOINT newVegas:LeftHandIndex3
										{
											OFFSET 3.835129 0.000000 0.000000
											CHANNELS 3 Xrotation Yrotation Zrotation
											End Site
											{
												OFFSET -0.034599 3.816971 0.371180
											}
										}
									}
								}
								JOINT newVegas:LeftHandMiddle1
								{
									OFFSET 18.476105 0.000000 0.000000
									CHANNELS 3 Xrotation Yrotation Zrotation
									JOINT newVegas:LeftHandMiddle2
									{
										OFFSET 3.324875 0.000000 0.000000
										CHANNELS 3 Xrotation Yrotation Zrotation
										JOINT newVegas:LeftHandMiddle3
										{
											OFFSET 4.596550 0.000000 0.000000
											CHANNELS 3 Xrotation Yrotation Zrotation
											End Site
											{
												OFFSET 0.057701 4.578827 0.399218
											}
										}
									}
								}
								JOINT newVegas:LeftHandRing1
								{
									OFFSET 17.732719 0.121887 -4.201567
									CHANNELS 3 Xrotation Yrotation Zrotation
									JOINT newVegas:LeftHandRing2
									{
										OFFSET 2.733170 0.000000 0.000000
										CHANNELS 3 Xrotation Yrotation Zrotation
										JOINT newVegas:LeftHandRing3
										{
											OFFSET 3.178268 0.000000 0.000000
											CHANNELS 3 Xrotation Yrotation Zrotation
											End Site
											{
												OFFSET 0.119102 3.170624 0.185394
											}
										}
									}
								}
								JOINT newVegas:LeftHandPinky1
								{
									OFFSET 15.989624 -0.606689 -7.535461
									CHANNELS 3 Xrotation Yrotation Zrotation
									JOINT newVegas:LeftHandPinky2
									{
										OFFSET 2.538986 0.000000 0.000000
										CHANNELS 3 Xrotation Yrotation Zrotation
										JOINT newVegas:LeftHandPinky3
										{
											OFFSET 2.593102 0.000000 0.000000
											CHANNELS 3 Xrotation Yrotation Zrotation
											End Site
											{
												OFFSET -0.150902 2.584198 0.152708
											}
										}
									}
								}
							}
							JOINT newVegas:Left_Sleeve
							{
								OFFSET 0.267448 -0.649796 0.577675
								CHANNELS 3 Xrotation Yrotation Zrotation
								End Site
								{
									OFFSET 0.000000 15.991241 0.000000
								}
							}
							JOINT newVegas:Left_CapeC
							{
								OFFSET 15.715958 -8.608795 -6.935905
								CHANNELS 3 Xrotation Yrotation Zrotation
								JOINT newVegas:Left_CapeC1
								{
									OFFSET 0.000000 -8.688499 0.000000
									CHANNELS 3 Xrotation Yrotation Zrotation
									End Site
									{
										OFFSET 0.000000 8.688499 0.000000
									}
								}
							}
						}
						JOINT newVegas:Left_CapeB
						{
							OFFSET 26.118385 -8.608795 -7.079235
							CHANNELS 3 Xrotation Yrotation Zrotation
							JOINT newVegas:Left_CapeB1
							{
								OFFSET 0.000000 -8.688499 0.000000
								CHANNELS 3 Xrotation Yrotation Zrotation
								End Site
								{
									OFFSET 0.000000 8.688499 0.000000
								}
							}
						}
						JOINT newVegas:Left_CapeA
						{
							OFFSET 5.115639 -8.608795 -10.395809
							CHANNELS 3 Xrotation Yrotation Zrotation
							JOINT newVegas:Left_CapeA1
							{
								OFFSET 0.000000 -8.688499 0.000000
								CHANNELS 3 Xrotation Yrotation Zrotation
								End Site
								{
									OFFSET 0.000000 8.688499 0.000000
								}
							}
						}
					}
				}
				JOINT newVegas:RightShoulder
				{
					OFFSET -15.263000 10.923401 -0.547700
					CHANNELS 3 Xrotation Yrotation Zrotation
					JOINT newVegas:RightArm
					{
						OFFSET -25.438599 -2.830597 -13.032500
						CHANNELS 3 Xrotation Yrotation Zrotation
						JOINT newVegas:RightForeArm
						{
							OFFSET -29.960503 0.000000 0.000000
							CHANNELS 3 Xrotation Yrotation Zrotation
							JOINT newVegas:RightHand
							{
								OFFSET -27.849251 0.000000 0.000000
								CHANNELS 3 Xrotation Yrotation Zrotation
								JOINT newVegas:RightHandThumb1
								{
									OFFSET -4.487587 -3.305161 6.305391
									CHANNELS 3 Xrotation Yrotation Zrotation
									JOINT newVegas:RightHandThumb2
									{
										OFFSET -5.480453 -3.164139 3.164143
										CHANNELS 3 Xrotation Yrotation Zrotation
										JOINT newVegas:RightHandThumb3
										{
											OFFSET -5.159721 -2.978973 2.978967
											CHANNELS 3 Xrotation Yrotation Zrotation
											End Site
											{
												OFFSET -2.494507 5.926697 1.738678
											}
										}
									}
								}
								JOINT newVegas:RightHandIndex1
								{
									OFFSET -18.578728 -0.527832 5.208049
									CHANNELS 3 Xrotation Yrotation Zrotation
									JOINT newVegas:RightHandIndex2
									{
										OFFSET -3.192009 0.000000 0.000000
										CHANNELS 3 Xrotation Yrotation Zrotation
										JOINT newVegas:RightHandIndex3
										{
											OFFSET -3.835129 0.000000 0.000000
											CHANNELS 3 Xrotation Yrotation Zrotation
											End Site
											{
												OFFSET 0.034599 3.816971 0.371180
											}
										}
									}
								}
								JOINT newVegas:RightHandMiddle1
								{
									OFFSET -18.476105 0.000000 0.000000
									CHANNELS 3 Xrotation Yrotation Zrotation
									JOINT newVegas:RightHandMiddle2
									{
										OFFSET -3.324875 0.000000 0.000000
										CHANNELS 3 Xrotation Yrotation Zrotation
										JOINT newVegas:RightHandMiddle3
										{
											OFFSET -4.596550 0.000000 0.000000
											CHANNELS 3 Xrotation Yrotation Zrotation
											End Site
											{
												OFFSET -0.057701 4.578827 0.399218
											}
										}
									}
								}
								JOINT newVegas:RightHandRing1
								{
									OFFSET -17.732719 0.121887 -4.201567
									CHANNELS 3 Xrotation Yrotation Zrotation
									JOINT newVegas:RightHandRing2
									{
										OFFSET -2.733170 0.000000 0.000000
										CHANNELS 3 Xrotation Yrotation Zrotation
										JOINT newVegas:RightHandRing3
										{
											OFFSET -3.178268 0.000000 0.000000
											CHANNELS 3 Xrotation Yrotation Zrotation
											End Site
											{
												OFFSET -0.119102 3.170624 0.185394
											}
										}
									}
								}
								JOINT newVegas:RightHandPinky1
								{
									OFFSET -15.989624 -0.606689 -7.535461
									CHANNELS 3 Xrotation Yrotation Zrotation
									JOINT newVegas:RightHandPinky2
									{
										OFFSET -2.538986 0.000000 0.000000
										CHANNELS 3 Xrotation Yrotation Zrotation
										JOINT newVegas:RightHandPinky3
										{
											OFFSET -2.593102 0.000000 0.000000
											CHANNELS 3 Xrotation Yrotation Zrotation
											End Site
											{
												OFFSET 0.150902 2.584198 0.152708
											}
										}
									}
								}
							}
							JOINT newVegas:Right_CapeC
							{
								OFFSET -15.715958 -8.608795 -6.935905
								CHANNELS 3 Xrotation Yrotation Zrotation
								JOINT newVegas:Right_CapeC1
								{
									OFFSET 0.000000 -8.688499 0.000000
									CHANNELS 3 Xrotation Yrotation Zrotation
									End Site
									{
										OFFSET 0.000000 8.688499 0.000000
									}
								}
							}
							JOINT newVegas:Right_Sleeve
							{
								OFFSET -0.267448 -0.649994 0.577675
								CHANNELS 3 Xrotation Yrotation Zrotation
								End Site
								{
									OFFSET 0.000000 15.991302 0.000000
								}
							}
						}
						JOINT newVegas:Right_CapeA
						{
							OFFSET -5.115540 -8.608795 -10.395824
							CHANNELS 3 Xrotation Yrotation Zrotation
							JOINT newVegas:Right_CapeA1
							{
								OFFSET 0.000000 -8.688499 0.000000
								CHANNELS 3 Xrotation Yrotation Zrotation
								End Site
								{
									OFFSET 0.000000 8.688499 0.000000
								}
							}
						}
						JOINT newVegas:Right_CapeB
						{
							OFFSET -26.118187 -8.608795 -7.079266
							CHANNELS 3 Xrotation Yrotation Zrotation
							JOINT newVegas:Right_CapeB1
							{
								OFFSET 0.000000 -8.688499 0.000000
								CHANNELS 3 Xrotation Yrotation Zrotation
								End Site
								{
									OFFSET 0.000000 8.688499 0.000000
								}
							}
						}
					}
				}
				JOINT newVegas:Left_Collar
				{
					OFFSET 18.625099 8.655502 8.828100
					CHANNELS 3 Xrotation Yrotation Zrotation
					JOINT newVegas:Left_Collar1
					{
						OFFSET 14.783401 10.540405 -1.259500
						CHANNELS 3 Xrotation Yrotation Zrotation
						End Site
						{
							OFFSET 0.000000 18.199875 0.000000
						}
					}
				}
				JOINT newVegas:Collar_Back
				{
					OFFSET 0.000000 15.630707 -20.132601
					CHANNELS 3 Xrotation Yrotation Zrotation
					End Site
					{
						OFFSET 0.000000 22.523010 0.000000
					}
				}
				JOINT newVegas:Left_Peck
				{
					OFFSET 17.239599 -5.132599 25.482599
					CHANNELS 3 Xrotation Yrotation Zrotation
					End Site
					{
						OFFSET 0.000000 22.523010 0.000000
					}
				}
				JOINT newVegas:Right_Peck
				{
					OFFSET -17.239599 -5.132202 25.482599
					CHANNELS 3 Xrotation Yrotation Zrotation
					End Site
					{
						OFFSET 0.000000 22.523010 0.000000
					}
				}
				JOINT newVegas:Right_Collar
				{
					OFFSET -18.625099 8.655792 8.828100
					CHANNELS 3 Xrotation Yrotation Zrotation
					JOINT newVegas:Right_Collar1
					{
						OFFSET -14.783401 10.539993 -1.259500
						CHANNELS 3 Xrotation Yrotation Zrotation
						End Site
						{
							OFFSET 0.000000 18.199631 0.000000
						}
					}
				}
			}
		}
		JOINT newVegas:Belly
		{
			OFFSET 0.000000 -6.540398 9.014299
			CHANNELS 3 Xrotation Yrotation Zrotation
			End Site
			{
				OFFSET 0.000000 11.566666 0.000000
			}
		}
	}
	JOINT newVegas:ElvisFacialAnim_Joint
	{
		OFFSET 1.000000 -95.330101 -8.825800
		CHANNELS 3 Xrotation Yrotation Zrotation
		End Site
		{
			OFFSET 0.000000 35.315800 0.000000
		}
	}
}
MOTION
Frames: 4
Frame Time: 0.016667
4.980295 70.578712 135.504471 8.393053 -19.275600 0.918807 -0.000000 -0.000001 -0.000000 34.005299 32.250394 7.556137 24.772449 19.414533 -3.593740 -23.156086 -3.095051 -33.683208 -0.000001 0.000001 -0.000001 -0.000001 -0.000004 -0.000000 -83.874573 -3.743295 -9.036175 62.962658 3.856919 -7.649775 11.764373 7.854304 7.116441 0.000000 0.000002 -0.000000 -0.000001 0.000002 -0.000001 2.412458 -4.753693 1.715579 4.820219 -8.149189 2.085947 4.820147 -8.149124 2.085946 1.954738 0.316681 3.010816 1.954740 0.316700 3.010808 0.000001 0.000000 -0.000000 1.954735 0.316699 3.010804 1.954670 0.316682 3.010820 -0.000000 0.000001 0.000001 0.000001 0.000000 -0.000000 -4.481860 -16.524639 -19.193559 -50.218256 -13.065779 -29.545349 -9.513721 -45.265112 18.313337 -90.641303 -9.142731 11.811216 18.604751 9.201154 -20.335708 9.366545 23.517096 3.907233 -0.000000 -0.000001 -0.000001 5.062917 7.259560 -60.393496 0.009037 -4.396060 -76.234747 -0.000003 -0.000002 -0.000003 -0.063983 4.758026 -60.986827 -0.080431 -4.896953 -84.974356 0.000001 -0.000001 0.000000 -0.034414 -0.057031 -61.362276 -0.169954 -1.351973 -91.625396 -0.000000 -0.000001 -0.000000 -4.255089 -2.157308 -63.603179 -0.059609 -0.064804 -85.011082 -0.000000 -0.000003 0.000002 -0.000001 0.000000 -0.000001 -0.000001 0.000000 -0.000001 -0.000002 0.000000 -0.000000 -0.000001 -0.000002 0.000001 -0.000001 -0.000003 0.000000 -0.000001 -0.000002 0.000001 -0.000003 -0.000003 0.000001 0.026767 -1.767835 1.230270 -18.293016 31.587309 8.179648 40.535192 8.128189 -4.683268 -43.424721 -46.363717 -11.839844 15.959772 -4.187774 29.032211 -14.791990 -41.235495 -16.515560 -0.000001 0.000000 -0.000000 5.358228 -4.863585 67.585043 0.006259 4.394835 68.693439 -0.000001 -0.000001 0.000003 -0.076818 -4.752198 70.834888 -0.076456 4.897925 82.216339 0.000002 0.000000 -0.000002 -1.164536 -6.475309 73.357482 -0.172070 1.351260 92.834367 0.000001 -0.000001 0.000001 -5.344934 -12.802422 81.125244 -0.058425 0.065324 84.695971 0.000002 0.000003 0.000001 -0.000002 -0.000001 -0.000000 -0.000002 0.000001 0.000000 -0.000002 -0.000000 -0.000001 0.000000 0.000000 0.000002 0.000000 0.000000 0.000001 0.000000 0.000000 0.000002 0.000000 -0.000000 0.000001 0.000001 -0.000003 0.000000 0.000001 -0.000003 0.000000 0.000001 -0.000003 0.000000 0.000001 -0.000003 0.000000 0.000001 -0.000003 0.000000 0.000001 -0.000003 0.000000 0.000001 -0.000003 0.000000 -0.000000 0.000000 0.000000 -0.000000 -0.000001 -0.000000 
4.544971 70.904190 137.597153 10.261431 -18.405686 0.362110 0.000000 0.000001 0.000000 34.401945 33.995860 7.711290 20.065918 21.607054 -3.085999 -18.686505 -4.806187 -33.744092 0.000002 -0.000001 -0.000000 -0.000001 0.000001 -0.000000 -84.303693 -4.932843 -9.971817 65.425754 4.904147 -7.689027 8.016279 6.504851 7.487705 -0.000000 0.000001 -0.000000 0.000000 0.000000 -0.000000 2.438035 -5.677390 2.039719 4.899762 -10.154805 2.662431 4.899748 -10.154745 2.662416 1.784087 0.646258 3.121208 1.784088 0.646227 3.121218 -0.000000 -0.000002 -0.000001 1.784084 0.646243 3.121209 1.784108 0.646294 3.121203 0.000001 -0.000003 -0.000001 -0.000000 -0.000002 -0.000000 -5.170239 -18.664281 -18.158319 -46.432794 -18.052714 -34.485598 -9.204831 -38.217057 16.317076 -98.519974 2.929858 8.071402 18.604751 9.201152 -20.335713 9.366538 23.517093 3.907236 0.000002 0.000001 0.000003 5.062919 7.259560 -60.393496 0.009037 -4.396058 -76.234747 0.000001 0.000000 0.000000 -0.063981 4.758024 -60.986834 -0.080430 -4.896954 -84.974363 0.000000 0.000002 -0.000006 -0.034412 -0.057026 -61.362269 -0.169952 -1.351973 -91.625403 -0.000002 0.000001 0.000003 -4.255089 -2.157304 -63.603186 -0.059615 -0.064801 -85.011089 -0.000001 -0.000003 0.000001 -0.000001 -0.000001 -0.000001 -0.000001 -0.000001 -0.000001 -0.000002 -0.000001 -0.000001 -0.000001 -0.000001 0.000001 -0.000002 -0.000002 0.000001 -0.000001 -0.000001 0.000001 -0.000003 -0.000002 0.000001 0.248731 -2.144193 4.457621 -14.470968 21.706652 4.671655 37.782243 8.308581 -4.381102 -41.885158 -47.673651 -10.025592 15.959772 -4.187775 29.032207 -14.791982 -41.235488 -16.515553 0.000003 -0.000002 -0.000001 5.358226 -4.863587 67.585043 0.006261 4.394834 68.693432 0.000003 -0.000002 -0.000001 -0.076818 -4.752198 70.834895 -0.076457 4.897924 82.216346 0.000001 -0.000003 -0.000004 -1.164535 -6.475304 73.357488 -0.172074 1.351261 92.834374 0.000000 -0.000001 -0.000001 -5.344930 -12.802427 81.125244 -0.058424 0.065322 84.695971 0.000001 0.000002 -0.000001 -0.000004 0.000001 -0.000000 -0.000004 0.000002 -0.000001 -0.000004 0.000000 -0.000000 0.000000 0.000002 -0.000000 0.000000 0.000003 -0.000001 0.000000 0.000002 -0.000000 0.000000 0.000003 -0.000001 -0.000000 0.000000 0.000000 -0.000000 0.000000 0.000000 -0.000000 0.000000 0.000000 -0.000000 0.000000 0.000000 -0.000000 0.000000 0.000000 -0.000000 0.000000 0.000000 -0.000000 0.000000 0.000000 -0.000000 -0.000001 -0.000000 0.000000 0.000001 0.000000 
4.110306 71.300835 139.867081 12.000723 -17.424868 -0.226055 -0.000000 -0.000001 -0.000000 33.838014 35.556865 8.654198 16.215882 23.789839 -2.644663 -12.755819 -6.772781 -33.561019 0.000001 -0.000002 -0.000000 0.000000 0.000003 0.000002 -84.152773 -5.748076 -10.782269 67.830718 6.354523 -7.681116 3.989587 4.368116 8.002511 0.000000 0.000000 0.000000 -0.000001 -0.000000 -0.000001 2.460335 -6.481893 2.266604 4.960979 -11.924856 3.021994 4.961008 -11.924960 3.022037 1.585875 0.975623 3.222326 1.585877 0.975619 3.222327 0.000003 0.000001 0.000000 1.585951 0.975614 3.222330 1.585784 0.975651 3.222319 0.000001 -0.000000 -0.000000 0.000003 0.000001 -0.000001 -5.400960 -20.399531 -16.650068 -43.348455 -23.388173 -38.897907 -9.093623 -31.903803 14.184720 -106.152423 14.962511 7.623528 18.604749 9.201148 -20.335707 9.366536 23.517094 3.907232 0.000001 -0.000001 -0.000001 5.062918 7.259557 -60.393496 0.009036 -4.396056 -76.234747 -0.000001 -0.000002 -0.000000 -0.063981 4.758022 -60.986827 -0.080430 -4.896952 -84.974356 -0.000001 -0.000001 0.000000 -0.034410 -0.057029 -61.362269 -0.169956 -1.351970 -91.625403 0.000001 -0.000001 0.000001 -4.255085 -2.157306 -63.603186 -0.059609 -0.064802 -85.011089 0.000002 -0.000003 0.000000 -0.000001 0.000001 0.000001 -0.000001 0.000001 0.000001 -0.000001 0.000000 0.000001 0.000001 0.000001 -0.000003 0.000001 0.000001 -0.000003 0.000001 0.000001 -0.000003 -0.000000 0.000000 -0.000003 0.440951 -2.570705 6.867595 -12.839501 16.555899 3.599487 34.933655 8.728787 -3.601199 -39.383680 -54.979925 -8.524771 15.959770 -4.187778 29.032207 -14.791985 -41.235491 -16.515555 0.000002 0.000000 -0.000000 5.358228 -4.863586 67.585036 0.006260 4.394836 68.693432 -0.000000 0.000001 0.000002 -0.076819 -4.752197 70.834888 -0.076458 4.897926 82.216339 -0.000000 0.000000 0.000002 -1.164535 -6.475306 73.357482 -0.172075 1.351261 92.834367 -0.000001 -0.000001 -0.000003 -5.344931 -12.802426 81.125244 -0.058417 0.065321 84.695964 0.000000 -0.000002 0.000000 0.000001 0.000001 -0.000001 -0.000001 0.000000 -0.000001 0.000001 0.000001 -0.000000 0.000000 0.000001 -0.000001 0.000000 0.000002 -0.000001 0.000000 0.000001 -0.000001 0.000000 0.000002 -0.000002 0.000002 0.000002 -0.000001 0.000002 0.000002 -0.000001 0.000002 0.000002 -0.000001 0.000002 0.000002 -0.000001 0.000002 0.000002 -0.000001 0.000002 0.000002 -0.000001 0.000002 0.000002 -0.000001 0.000000 -0.000002 -0.000000 -0.000000 -0.000001 -0.000000 
3.764725 71.493752 141.764130 13.057576 -17.710783 -0.827261 0.000000 0.000000 -0.000000 32.836667 36.734485 10.079526 13.767564 25.421501 -1.677790 -5.061621 -9.010253 -34.446847 -0.000000 0.000002 -0.000003 -0.000003 0.000000 0.000000 -83.548042 -6.187269 -10.380359 69.057652 6.254646 -7.739059 1.233863 3.982995 8.490333 0.000000 0.000002 -0.000000 -0.000000 0.000001 0.000000 2.482406 -7.191278 2.476944 5.005439 -13.331995 3.278268 5.005468 -13.331907 3.278241 1.368817 1.302167 3.313792 1.368812 1.302171 3.313791 -0.000002 0.000001 -0.000001 1.368814 1.302185 3.313790 1.368892 1.302176 3.313790 -0.000002 0.000002 -0.000000 -0.000002 0.000001 -0.000000 -5.462529 -21.822328 -15.277255 -41.539838 -28.186688 -42.662666 -9.093015 -26.803737 12.045810 -113.642723 25.261561 10.199948 18.604751 9.201160 -20.335713 9.366544 23.517094 3.907237 -0.000001 -0.000002 -0.000001 5.062917 7.259562 -60.393496 0.009038 -4.396062 -76.234747 -0.000000 -0.000000 -0.000002 -0.063982 4.758027 -60.986827 -0.080429 -4.896953 -84.974356 0.000001 -0.000001 -0.000002 -0.034415 -0.057026 -61.362269 -0.169954 -1.351973 -91.625396 0.000001 -0.000001 -0.000001 -4.255088 -2.157304 -63.603179 -0.059611 -0.064802 -85.011089 0.000002 -0.000005 -0.000004 0.000000 0.000000 0.000000 0.000000 0.000000 0.000000 -0.000000 -0.000000 0.000000 0.000001 0.000003 0.000003 0.000001 0.000003 0.000003 0.000001 0.000003 0.000003 0.000000 0.000002 0.000001 0.571908 -3.041704 8.393508 -12.235277 14.739594 3.552611 31.986906 9.211506 -2.529621 -37.140315 -64.951158 -8.984041 15.959772 -4.187775 29.032211 -14.791989 -41.235481 -16.515560 0.000001 -0.000003 0.000001 5.358227 -4.863586 67.585043 0.006259 4.394836 68.693432 0.000002 0.000001 0.000000 -0.076816 -4.752198 70.834888 -0.076457 4.897925 82.216346 0.000001 0.000001 0.000001 -1.164533 -6.475304 73.357488 -0.172076 1.351262 92.834367 -0.000001 0.000001 -0.000001 -5.344930 -12.802426 81.125244 -0.058419 0.065323 84.695971 0.000001 0.000003 -0.000001 -0.000004 -0.000000 -0.000000 -0.000004 -0.000004 0.000003 -0.000004 -0.000001 0.000002 -0.000000 -0.000002 0.000000 -0.000000 -0.000001 0.000000 -0.000000 -0.000002 0.000000 -0.000000 -0.000001 0.000000 0.000001 -0.000003 0.000001 0.000001 -0.000003 0.000001 0.000001 -0.000003 0.000001 0.000001 -0.000003 0.000001 0.000001 -0.000003 0.000001 0.000001 -0.000003 0.000001 0.000001 -0.000003 0.000001 -0.000001 0.000000 -0.000000 0.000000 0.000000 -0.000000 
